<svg width="264" height="112" viewBox="0 0 264 112" fill="none" xmlns="http://www.w3.org/2000/svg">
<rect x="0.5" y="0.5" width="263" height="111" rx="3.5" fill="#F4F4FD" stroke="#8E8F99"/>
<path d="M161.546 68.1952L144.66 51.1851L146.534 41.9541C147.018 42.1429 147.532 42.2416 148.051 42.2453H148.064C150.448 42.2735 152.404 40.3633 152.432 37.9788C152.461 35.5943 150.55 33.6384 148.166 33.6101C145.781 33.582 143.825 35.4921 143.797 37.8767C143.791 38.3869 143.875 38.8941 144.047 39.3749L134.127 40.5856L117.945 24.32C117.747 24.1175 117.476 24.0023 117.192 24C116.912 24.0015 116.644 24.1129 116.445 24.3104L113.42 27.3184C113.004 27.7349 113.004 28.4101 113.42 28.8267L115.048 30.4779C108.742 42.0737 110.79 56.4335 120.087 65.8037C120.172 65.8853 120.271 65.9513 120.379 65.9989C120.312 66.3599 120.277 66.7261 120.275 67.0933V79.4667H107.475C104.531 79.4701 102.145 81.856 102.141 84.8V86.9333C102.141 87.5224 102.619 88 103.208 88H152.275C152.864 88 153.341 87.5224 153.341 86.9333V84.8C153.338 81.856 150.952 79.4701 148.008 79.4667H135.208V73.9829C137.213 74.4035 139.256 74.6179 141.305 74.6229C146.221 74.6176 151.059 73.392 155.385 71.056L157.021 72.7019C157.22 72.9044 157.491 73.0196 157.775 73.0219C158.055 73.0204 158.323 72.9089 158.521 72.7115L161.546 69.7035C161.963 69.2869 161.963 68.6117 161.546 68.1952ZM146.56 36.4661C147.395 35.6352 148.746 35.6389 149.577 36.4743C150.407 37.3096 150.404 38.6604 149.568 39.4912C149.169 39.8889 148.627 40.1121 148.063 40.112H148.057C146.879 40.1059 145.929 39.1459 145.935 37.9676C145.938 37.4036 146.164 36.8639 146.564 36.4661H146.56ZM144.049 43.4752L142.852 49.3664L140.501 47.0016L144.049 43.4752ZM142.837 41.6715L138.997 45.4891L136.026 42.5024L142.837 41.6715ZM148.008 81.6C149.775 81.6 151.208 83.0327 151.208 84.8V85.8667H104.275V84.8C104.275 83.0327 105.707 81.6 107.475 81.6H148.008ZM133.075 77.3333V79.4667H122.408V77.3333H133.075ZM122.408 75.2V67.0933C122.408 64.5056 124.801 62.4 127.741 62.4C130.682 62.4 133.075 64.5056 133.075 67.0933V75.2H122.408ZM135.208 71.808V67.0933C135.208 63.3291 131.859 60.2667 127.741 60.2667C125.079 60.2259 122.59 61.5809 121.179 63.8389C113.064 55.2913 111.236 42.5485 116.622 32.0647L153.826 69.4816C148.081 72.404 141.495 73.2268 135.208 71.808ZM157.786 70.4405L156.283 68.9291L117.181 29.5915L115.672 28.0789L117.181 26.5749L133.051 42.5344C133.059 42.5344 133.063 42.5483 133.071 42.5536L159.3 68.9365L157.786 70.4405Z" fill="#2E2F42"/>
<path d="M127.751 64.5333H127.741C125.974 64.5306 124.539 65.9612 124.537 67.7285C124.534 69.4958 125.965 70.9306 127.732 70.9333H127.741C129.509 70.936 130.944 69.5054 130.946 67.7381C130.949 65.9708 129.518 64.536 127.751 64.5333ZM128.498 68.4896C128.297 68.6893 128.025 68.801 127.741 68.8C127.152 68.7969 126.677 68.3169 126.68 67.7278C126.682 67.4458 126.795 67.176 126.995 66.977C127.193 66.7796 127.461 66.6681 127.741 66.6666C128.331 66.6697 128.806 67.1497 128.803 67.7388C128.801 68.0208 128.688 68.2906 128.488 68.4896H128.498Z" fill="#4D5AE5"/>
</svg>

<svg width="264" height="112" viewBox="0 0 264 112" fill="none" xmlns="http://www.w3.org/2000/svg">
<rect x="0.5" y="0.5" width="263" height="111" rx="3.5" fill="#F4F4FD" stroke="#8E8F99"/>
<g clip-path="url(#clip0_302815_4218)">
<path d="M162.593 54.6025C162.59 37.6978 148.883 23.9966 131.978 24C115.073 24.0034 101.372 37.7109 101.375 54.6157C101.378 67.9316 109.989 79.7178 122.674 83.7681C122.795 83.8062 122.921 83.8257 123.047 83.8252C123.289 83.8247 123.525 83.7603 123.732 83.6377C124.002 83.478 124.204 83.2241 124.299 82.9248L132.029 58.4248C134.142 58.4141 135.846 56.6919 135.835 54.5791C135.824 52.4658 134.103 50.7617 131.989 50.7725C131.421 50.7749 130.86 50.9058 130.349 51.1553L120.137 40.9419C119.63 40.4526 118.823 40.4668 118.334 40.9731C117.856 41.4678 117.856 42.251 118.334 42.7456L128.541 52.9639C127.757 54.5625 128.205 56.4922 129.613 57.582L122.248 80.9277C107.692 75.5659 100.239 59.4199 105.601 44.8643C110.963 30.3086 127.109 22.8555 141.665 28.2173C156.22 33.5791 163.673 49.7256 158.312 64.2808C155.692 71.3921 150.31 77.1431 143.387 80.2275L142.591 76.479C142.446 75.79 141.769 75.3496 141.08 75.4956C140.862 75.542 140.661 75.6441 140.495 75.792L132.821 82.6431C132.294 83.1113 132.248 83.9175 132.716 84.4439C132.869 84.6148 133.064 84.7417 133.283 84.8115L143.08 87.9385C143.75 88.1538 144.469 87.7852 144.684 87.1143C144.752 86.9024 144.764 86.6768 144.718 86.459L143.936 82.7808C155.264 78.0049 162.62 66.8965 162.593 54.6025ZM131.984 53.3272C132.688 53.3272 133.26 53.8984 133.26 54.6025C133.26 55.3071 132.688 55.8779 131.984 55.8779C131.28 55.8779 130.709 55.3071 130.709 54.6025C130.709 53.8984 131.28 53.3272 131.984 53.3272ZM136.185 83.0552L140.553 79.1587L141.759 84.8394L136.185 83.0552Z" fill="#2E2F42"/>
<path d="M130.709 30.3701V32.9209C130.709 33.6255 131.28 34.1963 131.984 34.1963C132.688 34.1963 133.26 33.6255 133.26 32.9209V30.3701C133.26 29.666 132.688 29.0947 131.984 29.0947C131.28 29.0947 130.709 29.666 130.709 30.3701Z" fill="#4D5AE5"/>
<path d="M107.752 53.3271C107.047 53.3271 106.477 53.8984 106.477 54.6025C106.477 55.3071 107.047 55.8779 107.752 55.8779H110.303C111.007 55.8779 111.578 55.3071 111.578 54.6025C111.578 53.8984 111.007 53.3271 110.303 53.3271H107.752Z" fill="#4D5AE5"/>
<path d="M156.216 55.8779C156.921 55.8779 157.492 55.3071 157.492 54.6025C157.492 53.8984 156.921 53.3271 156.216 53.3271H153.665C152.961 53.3271 152.39 53.8984 152.39 54.6025C152.39 55.3071 152.961 55.8779 153.665 55.8779H156.216Z" fill="#4D5AE5"/>
</g>
<defs>
<clipPath id="clip0_302815_4218">
<rect width="64" height="64" fill="white" transform="translate(100 24)"/>
</clipPath>
</defs>
</svg>
